# File created by Blade
# Date/Time:  Wed Jan 21 19:19:27 2015
#---------------------------------------------------------
:version 1.10
:name HOM
:units
  mass 1.0
  length 1.000000
  angle deg
:documentation
     Acclaim Skeleton File
:root
   axis xyz
   order TX TY TZ RX RY RZ
   position 0.000000 0.000000 0.000000
   orientation 0 0 0
:bonedata
   begin
      id 1
      name RightUpLeg_dum
      direction -1.000000 0.000000 0.000000
      length 3.693983
      axis 0.0 0.0 0.0 xyz
   end
   begin
      id 2
      name LeftUpLeg_dum
      direction 1.000000 0.000000 0.000000
      length 3.693983
      axis 0.0 0.0 0.0 xyz
   end
   begin
      id 3
      name Spine_dum
      direction 0.000000 1.000000 0.000000
      length 2.392956
      axis 0.0 0.0 0.0 xyz
   end
   begin
      id 4
      name RightUpLeg
      direction 0.000000 -1.000000 0.000000
      length 15.795667
      axis 0.0 0.0 0.0 xyz
      dof rx ry rz
   end
   begin
      id 5
      name RightLeg
      direction 0.000000 -1.000000 0.000000
      length 14.766989
      axis 0.0 0.0 0.0 xyz
      dof rx ry rz
   end
   begin
      id 6
      name RightFoot
      direction 0.000000 -0.258819 0.965926
      length 4.962790
      axis 15.0 0.0 0.0 xyz
      dof rx ry rz
   end
   begin
      id 7
      name RightToeBase
      direction 0.000000 0.000000 1.000000
      length 2.952750
      axis 0.0 0.0 0.0 xyz
      dof rx ry rz
   end
   begin
      id 8
      name LeftUpLeg
      direction 0.000000 -1.000000 0.000000
      length 15.795667
      axis 0.0 0.0 0.0 xyz
      dof rx ry rz
   end
   begin
      id 9
      name LeftLeg
      direction 0.000000 -1.000000 0.000000
      length 14.766989
      axis 0.0 0.0 0.0 xyz
      dof rx ry rz
   end
   begin
      id 10
      name LeftFoot
      direction 0.000000 -0.258819 0.965926
      length 4.962790
      axis 15.0 0.0 0.0 xyz
      dof rx ry rz
   end
   begin
      id 11
      name LeftToeBase
      direction 0.000000 0.000000 1.000000
      length 2.952750
      axis 0.0 0.0 0.0 xyz
      dof rx ry rz
   end
   begin
      id 12
      name Spine
      direction 0.000000 1.000000 0.000000
      length 0.000000
      axis 0.0 0.0 0.0 xyz
      dof rx ry rz
   end
   begin
      id 13
      name Spine_dum1
      direction 0.000000 1.000000 0.000000
      length 13.207411
      axis 0.0 0.0 0.0 xyz
   end
   begin
      id 14
      name Spine_dum2
      direction 0.000000 1.000000 0.000000
      length 13.207411
      axis 0.0 0.0 0.0 xyz
   end
   begin
      id 15
      name Spine_dum3
      direction 0.000000 1.000000 0.000000
      length 19.250100
      axis 0.0 0.0 0.0 xyz
   end
   begin
      id 16
      name RightShoulder
      direction -1.000000 0.000000 0.000000
      length 8.140465
      axis 0.0 0.0 90.0 xyz
      dof rx ry rz
   end
   begin
      id 17
      name RightArm
      direction -1.000000 0.000000 0.000000
      length 10.649840
      axis 0.0 0.0 90.0 xyz
      dof rx ry rz
   end
   begin
      id 18
      name RightForeArm
      direction -1.000000 0.000000 0.000000
      length 8.304624
      axis 0.0 0.0 90.0 xyz
      dof ry rz rx
   end
   begin
      id 19
      name RightHand
      direction -1.000000 0.000000 0.000000
      length 0.000000
      axis 0.0 0.0 90.0 xyz
      dof rx ry rz
   end
   begin
      id 20
      name RightHand_dum1
      direction -1.000000 0.000000 0.000000
      length 3.937000
      axis 0.0 0.0 90.0 xyz
   end
   begin
      id 21
      name RightHand_dum2
      direction 0.000000 0.000000 0.000000
      length 0.000000
      axis 0.0 0.0 90.0 xyz
   end
   begin
      id 22
      name RightHandThumb1
      direction 0.000000 0.000000 1.000000
      length 3.937000
      axis 0.0 0.0 90.0 xyz
      dof rx rz ry
   end
   begin
      id 23
      name LeftShoulder
      direction 1.000000 0.000000 0.000000
      length 8.140465
      axis 0.0 0.0 -90.0 xyz
      dof rx ry rz
   end
   begin
      id 24
      name LeftArm
      direction 1.000000 0.000000 0.000000
      length 10.649840
      axis 0.0 0.0 -90.0 xyz
      dof rx ry rz
   end
   begin
      id 25
      name LeftForeArm
      direction 1.000000 0.000000 0.000000
      length 8.304624
      axis 0.0 0.0 -90.0 xyz
      dof ry rz rx
   end
   begin
      id 26
      name LeftHand
      direction 1.000000 0.000000 0.000000
      length 0.000000
      axis 0.0 0.0 -90.0 xyz
      dof rx ry rz
   end
   begin
      id 27
      name LeftHand_dum1
      direction 1.000000 0.000000 0.000000
      length 3.937000
      axis 0.0 0.0 -90.0 xyz
   end
   begin
      id 28
      name LeftHand_dum2
      direction 0.000000 0.000000 0.000000
      length 0.000000
      axis 0.0 0.0 -90.0 xyz
   end
   begin
      id 29
      name LeftHandThumb1
      direction 0.000000 0.000000 1.000000
      length 3.937000
      axis 0.0 0.0 -90.0 xyz
      dof rx rz ry
   end
   begin
      id 30
      name Head
      direction 0.000000 1.000000 0.000000
      length 4.527550
      axis 0.0 0.0 0.0 xyz
      dof rx ry rz
   end
:hierarchy
   begin
      root RightUpLeg_dum LeftUpLeg_dum Spine_dum
      RightUpLeg_dum RightUpLeg
      LeftUpLeg_dum LeftUpLeg
      Spine_dum Spine
      RightUpLeg RightLeg
      RightLeg RightFoot
      RightFoot RightToeBase
      LeftUpLeg LeftLeg
      LeftLeg LeftFoot
      LeftFoot LeftToeBase
      Spine Spine_dum1 Spine_dum2 Spine_dum3
      Spine_dum1 RightShoulder
      Spine_dum2 LeftShoulder
      Spine_dum3 Head
      RightShoulder RightArm
      RightArm RightForeArm
      RightForeArm RightHand
      RightHand RightHand_dum1 RightHand_dum2
      RightHand_dum2 RightHandThumb1
      LeftShoulder LeftArm
      LeftArm LeftForeArm
      LeftForeArm LeftHand
      LeftHand LeftHand_dum1 LeftHand_dum2
      LeftHand_dum2 LeftHandThumb1
   end

# File created by Blade
# Date/Time:  Wed Jan 21 19:19:18 2015
# Frame Rate: 120.000 fps
#------------------------------------------------------
:FULLY-SPECIFIED
:DEGREES
41
root 0.111810 32.723431 -0.486067 46.353617 -9.144097 -2.953952
RightUpLeg -51.554252 -29.103007 8.266327
RightLeg -2.415775 -0.000000 0.000000
RightFoot 14.845181 -15.312049 17.518484
RightToeBase 19.343089 -0.000000 -0.000000
LeftUpLeg -40.839449 6.934254 -3.046148
LeftLeg 0.765865 -0.000000 -0.000000
LeftFoot -10.870380 1.564620 -7.668311
LeftToeBase 10.043753 -0.000000 -0.000000
Spine -45.689216 3.015088 -1.855826
RightShoulder -18.644397 11.043936 -29.582798
RightArm 1.286693 -21.969898 74.358402
RightForeArm 7.140057 -0.000000 -2.590521
RightHand 13.862030 -0.000000 -3.336763
RightHandThumb1 -24.326973 -0.000000 -32.862282
LeftShoulder -11.843008 11.137897 33.426974
LeftArm 12.700313 -1.432445 -72.802104
LeftForeArm 13.134418 -0.000000 3.163422
LeftHand -22.279386 -0.000000 5.777836
LeftHandThumb1 -26.253704 0.000000 33.147579
Head 14.347687 -10.683823 17.491773
42
root 0.040548 32.715779 -0.482704 46.411244 -9.130608 -2.860474
RightUpLeg -51.832499 -29.594945 8.094334
RightLeg -2.406435 -0.000000 0.000000
RightFoot 15.494968 -15.508137 17.593600
RightToeBase 19.156730 -0.000000 -0.000000
LeftUpLeg -40.865849 7.047129 -3.095632
LeftLeg 0.698296 -0.000000 -0.000000
LeftFoot -10.809996 1.414392 -7.667837
LeftToeBase 9.930545 -0.000000 -0.000000
Spine -45.709560 2.904237 -1.820439
RightShoulder -18.675568 10.900878 -29.365845
RightArm 1.089561 -22.054756 74.801429
RightForeArm 7.010811 0.000000 -2.496733
RightHand 13.717317 0.000000 -3.431238
RightHandThumb1 -24.326973 -0.000000 -32.862282
LeftShoulder -11.797991 11.182839 33.345417
LeftArm 12.669893 -1.037638 -73.228145
LeftForeArm 12.938155 -0.000000 2.826509
LeftHand -22.110091 -0.000000 5.318385
LeftHandThumb1 -26.253704 0.000000 33.147579
Head 14.448687 -10.757873 17.521950
43
root -0.030186 32.705514 -0.479371 46.457963 -9.133249 -2.711545
RightUpLeg -52.065280 -30.050315 7.798397
RightLeg -2.396342 -0.000000 0.000000
RightFoot 16.189925 -15.569294 17.271568
RightToeBase 19.025675 -0.000000 -0.000000
LeftUpLeg -40.890797 7.115602 -3.187155
LeftLeg 0.643389 -0.000000 -0.000000
LeftFoot -10.768751 1.274787 -7.734015
LeftToeBase 9.911243 -0.000000 -0.000000
Spine -45.712937 2.769682 -1.827495
RightShoulder -18.720391 10.727873 -29.158556
RightArm 0.958730 -22.119209 75.200711
RightForeArm 6.760167 -0.000000 -2.501284
RightHand 13.823901 -0.000000 -3.345984
RightHandThumb1 -24.326973 -0.000000 -32.862282
LeftShoulder -11.777627 11.208614 33.258761
LeftArm 12.640151 -0.563680 -73.592287
LeftForeArm 12.811858 0.000000 2.511340
LeftHand -22.089836 -0.000000 4.880751
LeftHandThumb1 -26.253704 0.000000 33.147579
Head 14.507045 -10.763298 17.575068
44
root -0.107433 32.695990 -0.477269 46.494936 -9.092183 -2.618830
RightUpLeg -52.260028 -30.471569 7.574106
RightLeg -2.413382 -0.000000 0.000000
RightFoot 16.770613 -15.734944 17.360763
RightToeBase 19.370414 -0.000000 -0.000000
LeftUpLeg -40.918339 7.206626 -3.202878
LeftLeg 0.614164 -0.000000 -0.000000
LeftFoot -10.759519 1.127734 -7.818558
LeftToeBase 9.917323 -0.000000 -0.000000
Spine -45.697053 2.662300 -1.788382
RightShoulder -18.756762 10.553259 -28.936558
RightArm 0.802348 -22.081449 75.589712
RightForeArm 6.616031 -0.000000 -2.506645
RightHand 13.766953 -0.000000 -3.238703
RightHandThumb1 -24.326973 -0.000000 -32.862282
LeftShoulder -11.754806 11.186046 33.193499
LeftArm 12.612612 0.014141 -73.950678
LeftForeArm 12.575497 -0.000000 2.148275
LeftHand -21.918941 -0.000000 4.680230
LeftHandThumb1 -26.253704 0.000000 33.147579
Head 14.559971 -10.819778 17.638747
45
root -0.189922 32.685877 -0.473360 46.546202 -9.011300 -2.512537
RightUpLeg -52.428539 -30.873779 7.334588
RightLeg -2.416668 -0.000000 0.000000
RightFoot 17.371668 -15.806363 17.325589
RightToeBase 19.284900 -0.000000 -0.000000
LeftUpLeg -40.960010 7.258891 -3.191748
LeftLeg 0.583274 -0.000000 -0.000000
LeftFoot -10.762525 1.014563 -7.871684
LeftToeBase 9.966929 -0.000000 -0.000000
Spine -45.711040 2.536893 -1.747573
RightShoulder -18.798771 10.376794 -28.718894
RightArm 0.638611 -22.027055 75.965789
RightForeArm 6.420255 -0.000000 -2.575574
RightHand 14.109366 -0.000000 -3.439038
RightHandThumb1 -24.326973 -0.000000 -32.862282
LeftShoulder -11.723166 11.138653 33.123547
LeftArm 12.594638 0.538720 -74.298893
LeftForeArm 12.422043 0.000000 1.816968
LeftHand -21.952174 -0.000000 4.386218
LeftHandThumb1 -26.253704 0.000000 33.147579
Head 14.625382 -10.893682 17.671324
46
root -0.275237 32.675722 -0.469918 46.578053 -8.910742 -2.397399
RightUpLeg -52.571076 -31.292266 7.114959
RightLeg -2.418426 -0.000000 0.000000
RightFoot 17.965744 -15.901837 17.579214
RightToeBase 19.391169 -0.000000 -0.000000
LeftUpLeg -40.994655 7.340692 -3.203772
LeftLeg 0.560807 -0.000000 -0.000000
LeftFoot -10.725324 0.828757 -7.931474
LeftToeBase 9.920755 -0.000000 -0.000000
Spine -45.698357 2.402693 -1.701692
RightShoulder -18.815605 10.222517 -28.503491
RightArm 0.422200 -21.787411 76.325904
RightForeArm 6.278054 -0.000000 -2.607365
RightHand 13.775534 -0.000000 -3.271162
RightHandThumb1 -24.326973 -0.000000 -32.862282
LeftShoulder -11.675483 11.062569 33.064110
LeftArm 12.531456 0.986136 -74.678057
LeftForeArm 12.093563 -0.000000 1.521636
LeftHand -21.856746 -0.000000 4.389283
LeftHandThumb1 -26.253704 0.000000 33.147579
Head 14.660179 -10.959271 17.714901
47
root -0.360669 32.666317 -0.472378 46.662556 -8.828218 -2.273619
RightUpLeg -52.779633 -31.636180 6.870914
RightLeg -2.354930 -0.000000 0.000000
RightFoot 18.591871 -15.901442 17.687103
RightToeBase 19.423466 -0.000000 -0.000000
LeftUpLeg -41.100847 7.455334 -3.272443
LeftLeg 0.543668 -0.000000 -0.000000
LeftFoot -10.680360 0.628205 -8.001868
LeftToeBase 9.904133 -0.000000 -0.000000
Spine -45.726044 2.291820 -1.699737
RightShoulder -18.848887 10.022606 -28.243650
RightArm 0.244900 -22.110962 76.629635
RightForeArm 6.514803 0.000000 -2.645030
RightHand 14.094100 -0.000000 -3.438853
RightHandThumb1 -24.326973 -0.000000 -32.862282
LeftShoulder -11.633617 11.010559 33.019121
LeftArm 12.513886 1.195844 -75.117081
LeftForeArm 11.929389 -0.000000 1.325161
LeftHand -21.914446 -0.000000 4.375993
LeftHandThumb1 -26.253704 0.000000 33.147579
Head 14.673183 -11.019847 17.790094
